<svg xmlns="http://www.w3.org/2000/svg" width="32" height="32" viewBox="0 0 32 32" shape-rendering="crispEdges">
  <path d="M3 5H16V19H14V23H3Z" fill="#17212d"/>
  <rect x="5" y="7" width="9" height="13" fill="#f8f4df"/>
  <rect x="7" y="9" width="5" height="7" fill="#2e6f9b"/>
  <rect x="8" y="10" width="3" height="3" fill="#55b8e5"/>
  <path d="M12 13H17V10H20V12H22V14H25V16H27V19H29V24H26V27H15V25H11V22H9V18H12Z" fill="#17212d"/>
  <path d="M13 15H18V12H19V17H21V15H23V19H25V17H26V21H27V24H25V25H16V23H13V21H11V19H13Z" fill="#bd8039"/>
  <path d="M14 15H18V13H19V18H21V16H22V20H24V18H25V22H26V23H16V21H13V19H14Z" fill="#f5c65c"/>
  <rect x="14" y="15" width="4" height="2" fill="#ffe79a"/>
  <rect x="2" y="25" width="4" height="2" fill="#ed6868"/>
  <rect x="7" y="25" width="2" height="2" fill="#ed6868"/>
</svg>
